<svg width="1280" height="720" xmlns="http://www.w3.org/2000/svg" xmlns:xlink="http://www.w3.org/1999/xlink" overflow="hidden"><defs><clipPath id="clip0"><rect x="417" y="224" width="254" height="425"/></clipPath><clipPath id="clip1"><rect x="417" y="224" width="254" height="425"/></clipPath><clipPath id="clip2"><rect x="669" y="214" width="191" height="426"/></clipPath><clipPath id="clip3"><rect x="669" y="214" width="191" height="426"/></clipPath><clipPath id="clip4"><rect x="405" y="21" width="425" height="313"/></clipPath><clipPath id="clip5"><rect x="405" y="21" width="425" height="314"/></clipPath></defs><g><rect x="0" y="0" width="1280" height="720" fill="#FFFFFF"/><g clip-path="url(#clip0)"><g clip-path="url(#clip1)"><g><path d="M402.878 156.742 287.938 135.843 287.774 136.745 287.774 162.813 296.641 164.425 296.641 181.51 252.357 181.51 252.357 87.7722 261.211 85.5977 261.211 58.244 22.1489 116.961 22.1489 144.315 31.0029 142.14 31.0029 363.021 252.357 363.021 252.357 301.042 296.628 301.042 296.628 363.021 394.037 363.021 394.037 182.134 402.878 183.741ZM57.5654 199.219 101.836 199.219 101.836 256.771 57.5654 256.771ZM119.545 199.219 163.815 199.219 163.815 256.771 119.545 256.771ZM119.545 181.51 119.545 120.393 163.815 109.519 163.815 181.51ZM181.524 199.219 225.795 199.219 225.795 256.771 181.524 256.771ZM296.641 199.219 296.641 256.771 252.357 256.771 252.357 199.219ZM225.795 181.51 181.524 181.51 181.524 105.17 225.795 94.296ZM101.836 124.742 101.836 181.51 57.5654 181.51 57.5654 135.616ZM367.474 256.771 323.203 256.771 323.203 169.255 367.474 177.304Z" fill="#E97132" transform="matrix(1.00184 0 0 1 417 224)"/></g></g></g><g clip-path="url(#clip2)"><g clip-path="url(#clip3)"><g><path d="M350.427 332.684 350.427 323.812 337.12 323.812 337.12 172.996 350.427 172.996 350.427 164.124 363.734 164.124 363.734 137.509 350.427 137.509 212.918 53.2294 75.4084 137.509 62.101 137.509 62.101 164.124 75.4084 164.124 75.4084 172.996 88.7157 172.996 88.7157 323.812 75.4084 323.812 75.4084 332.684 44.3579 354.863 44.3579 372.606 381.478 372.606 381.478 354.863 350.427 332.684ZM159.688 323.812 124.202 323.812 124.202 172.996 159.688 172.996 159.688 323.812ZM230.661 323.812 195.175 323.812 195.175 172.996 230.661 172.996 230.661 323.812ZM301.633 323.812 266.147 323.812 266.147 172.996 301.633 172.996 301.633 323.812Z" fill="#E97132" transform="matrix(1 0 0 1.00039 434.164 214)"/></g></g></g><g clip-path="url(#clip4)"><g clip-path="url(#clip5)"><g><path d="M237.541 212.327C237.541 226.985 225.658 238.868 211 238.868 196.342 238.868 184.459 226.985 184.459 212.327 184.459 197.669 196.342 185.786 211 185.786 225.658 185.786 237.541 197.669 237.541 212.327Z" fill="#E97132" transform="matrix(1.00081 0 0 1 405 21)"/><path d="M366.707 123.858C359.187 111.029 342.378 104.837 319.375 104.837 304.778 104.837 287.969 107.491 269.39 112.356 256.562 65.9099 235.329 35.3879 211 35.3879 187.113 35.3879 165.438 65.4675 153.053 111.472 135.359 107.048 119.434 104.394 105.279 104.394 82.2768 104.394 65.4675 110.587 57.9476 123.415 45.5619 144.648 61.9288 178.709 95.9896 213.212 63.2558 246.83 48.216 279.564 60.1594 300.354 67.6793 313.183 84.4885 319.375 107.491 319.375 120.761 319.375 136.243 317.164 153.053 313.183 165.881 359.187 187.113 389.266 211 389.266 234.887 389.266 256.562 359.187 268.948 313.183 286.642 317.606 302.566 320.26 316.721 320.26 339.724 320.26 356.533 314.067 364.053 301.239 375.996 280.449 360.956 247.715 328.222 214.097 363.168 179.151 379.092 145.09 366.707 123.858ZM319.375 122.53C335.742 122.53 347.686 126.512 351.225 132.704 357.86 144.206 345.916 171.189 315.837 201.268 305.22 191.537 293.277 181.805 280.006 172.516 278.679 157.476 276.468 142.878 273.371 129.166 290.18 124.742 306.105 122.53 319.375 122.53ZM240.195 258.331C230.906 263.64 221.616 268.505 212.327 272.929 203.038 268.505 193.749 263.64 184.459 258.331 175.612 253.023 166.765 247.715 158.803 242.407 157.918 232.675 157.918 222.944 157.918 212.327 157.918 202.596 158.361 193.306 158.803 184.017 167.65 177.824 176.939 172.073 187.113 166.323 195.518 161.457 203.923 157.034 212.327 153.053 220.732 157.034 229.136 161.457 237.541 166.323 246.388 171.631 255.235 176.939 263.197 182.247 264.082 191.979 264.082 201.711 264.082 212.327 264.082 223.386 263.64 234.002 262.755 244.176 255.677 249.042 248.157 253.466 240.195 258.331ZM260.543 266.736C259.216 275.141 257.889 283.545 256.562 291.065 249.042 288.411 241.08 285.757 233.118 282.218 238.426 279.564 243.734 276.468 249.042 273.371 253.023 271.159 257.004 268.948 260.543 266.736ZM191.537 282.218C182.69 285.757 174.285 288.853 165.881 291.508 164.111 283.103 162.784 274.256 161.457 264.967 166.323 268.063 170.746 270.717 176.055 273.814 180.92 276.468 186.229 279.564 191.537 282.218ZM140.667 229.136C133.589 223.828 127.396 218.52 121.646 213.212 127.396 207.904 134.032 202.596 140.667 197.287 140.667 202.153 140.224 207.019 140.224 212.327 140.224 218.078 140.224 223.828 140.667 229.136ZM161.015 161.457C162.342 151.725 163.669 142.436 165.438 133.589 173.843 136.243 182.69 139.782 191.537 143.321 187.113 145.533 182.247 148.187 177.824 150.841 172.516 154.38 166.765 157.918 161.015 161.457ZM232.675 143.321C240.637 139.782 248.6 137.128 256.562 134.474 258.331 142.436 259.658 150.841 260.986 159.688 256.12 156.591 251.696 153.937 246.388 150.841 241.965 148.629 237.541 145.975 232.675 143.321ZM281.333 195.518C289.296 201.711 296.373 207.461 303.009 213.654 296.373 219.405 289.296 225.598 281.333 231.348 281.776 225.155 281.776 218.962 281.776 212.77 281.776 206.577 281.776 200.826 281.333 195.518ZM211 53.0818C224.271 53.0818 241.522 76.5263 252.581 117.222 239.753 121.646 226.04 126.954 212.327 133.147 197.73 126.512 183.575 120.761 169.862 116.338 180.92 76.0839 197.73 53.0818 211 53.0818ZM72.9875 132.704C76.9686 126.069 88.4697 122.53 104.837 122.53 117.665 122.53 132.262 124.742 148.187 128.723 145.09 142.878 142.878 158.361 141.551 174.285 129.166 183.132 118.107 191.979 108.375 201.268 78.738 171.189 66.3522 144.206 72.9875 132.704ZM107.491 302.124C91.1237 302.124 79.1803 298.143 75.6416 291.95 69.0063 280.449 80.5074 254.793 108.818 225.598 118.992 234.445 130.05 243.292 141.994 252.139 143.321 267.621 145.533 282.661 148.629 296.373 134.032 300.354 119.876 302.124 107.491 302.124ZM211 371.573C197.73 371.573 180.92 348.57 169.862 308.759 183.575 304.336 197.73 299.027 212.327 292.392 226.04 298.585 239.31 303.893 252.139 307.874 241.08 348.57 224.271 371.573 211 371.573ZM349.013 291.95C345.032 298.585 333.531 302.124 317.164 302.124 304.336 302.124 289.296 299.912 273.814 295.931 276.468 282.661 278.679 268.948 280.006 253.908 293.277 244.619 305.22 235.329 315.837 225.598 344.147 254.793 355.648 280.449 349.013 291.95Z" fill="#E97132" transform="matrix(1.00081 0 0 1 405 21)"/></g></g></g><text fill="#80350E" font-family="Aharoni,Aharoni_MSFontService,sans-serif" font-weight="700" font-size="72" transform="translate(74.3333 671)">Research Institute of</text><text fill="#80350E" font-family="Aharoni,Aharoni_MSFontService,sans-serif" font-weight="700" font-size="72" transform="translate(782.667 671)">MetaScience</text></g></svg>